<svg width="33" height="30" viewBox="0 0 33 30" fill="none" xmlns="http://www.w3.org/2000/svg">
<path d="M0 12.4854C0 10.5718 0.418911 8.65824 1.19689 6.92408C1.91502 5.30952 3.05206 3.87436 4.42849 2.79798C5.80491 1.66181 7.42071 0.884422 9.15619 0.465832C11.0114 -0.0125568 12.9862 -0.0723527 14.8414 0.286439C16.8163 0.645231 18.7313 1.36281 20.4668 2.37939C22.2023 3.39596 23.6984 4.71154 25.015 6.2065C26.2717 7.70147 27.289 9.37582 28.067 11.2296C28.7852 13.0235 29.1442 14.9969 29.1442 16.9104C29.1442 18.7642 28.7852 20.5582 28.067 22.2923C27.3489 23.8471 26.3315 25.2823 25.015 26.3586C23.6984 27.4948 22.1424 28.332 20.4668 28.8104C18.6116 29.3486 16.7564 29.4682 14.8414 29.1692C12.8665 28.8702 10.8917 28.2722 9.15619 27.2556C7.36086 26.2988 5.80491 24.9833 4.42849 23.4883C3.05206 21.9933 1.97487 20.2592 1.19689 18.3456C0.418911 16.4919 0 14.5185 0 12.4854Z" fill="#AABCC5"/>
<path d="M3.59067 12.4854C3.59067 10.5718 4.00958 8.65824 4.78756 6.92408C5.50569 5.30952 6.64273 3.87436 8.01915 2.79798C9.39557 1.66181 11.0114 0.884422 12.7469 0.465832C14.602 -0.0125568 16.5769 -0.0723527 18.4321 0.286439C20.4069 0.645231 22.322 1.36281 24.0575 2.37939C25.7929 3.39596 27.2891 4.71154 28.6056 6.2065C29.8624 7.70147 30.8797 9.37582 31.6577 11.2296C32.3758 13.0235 32.7349 14.9969 32.7349 16.9104C32.7349 18.7642 32.3758 20.5582 31.6577 22.2923C30.9396 23.8471 29.9222 25.2823 28.6056 26.3586C27.2891 27.4948 25.7331 28.332 24.0575 28.8104C22.2023 29.3486 20.3471 29.4682 18.4321 29.1692C16.4572 28.8702 14.4823 28.2722 12.7469 27.2556C10.9515 26.2988 9.39557 24.9833 8.01915 23.4883C6.64273 21.9933 5.56553 20.2592 4.78756 18.3456C4.00958 16.4919 3.59067 14.5185 3.59067 12.4854Z" fill="#17A550"/>
<path d="M12.6272 12.4255L16.9958 13.0833V8.77781C16.9958 8.59841 17.0556 8.41901 17.1155 8.23962C17.1753 8.06022 17.295 7.94062 17.4147 7.82103C17.5344 7.70143 17.7139 7.64163 17.8935 7.58184C18.073 7.52204 18.2525 7.52204 18.4321 7.58184C18.6116 7.64163 18.7911 7.70143 18.9707 7.76122C19.1502 7.88082 19.2699 8.00042 19.4494 8.12002C19.5691 8.23962 19.6888 8.41902 19.7486 8.59841C19.8085 8.77781 19.8683 8.9572 19.8683 9.1964V13.4421L24.1173 14.0999C24.2968 14.1597 24.4763 14.2195 24.6559 14.2793C25.0149 14.4587 25.2543 14.7577 25.4339 15.1165C25.4937 15.2959 25.5535 15.4753 25.5535 15.6546C25.5535 15.834 25.4937 16.0134 25.4339 16.1928C25.374 16.3722 25.2543 16.4918 25.1346 16.6114C25.0149 16.731 24.8354 16.7908 24.7157 16.8506C24.5362 16.9104 24.3567 16.9104 24.1771 16.8506L19.9282 16.1928V20.4385C19.9282 20.6179 19.8683 20.7973 19.8085 20.9767C19.7486 21.1561 19.6289 21.2757 19.5093 21.3953C19.3896 21.5149 19.21 21.5747 19.0305 21.6345C18.851 21.6943 18.6714 21.6943 18.4919 21.6943C18.3124 21.6943 18.1328 21.5747 17.9533 21.5149C17.7738 21.3953 17.6541 21.2757 17.4746 21.1561C17.3549 21.0365 17.2352 20.8571 17.1753 20.6777C17.1155 20.4983 17.0556 20.3189 17.0556 20.0797V15.8938L12.687 15.2361C12.5075 15.1763 12.2681 15.1165 12.1484 15.0567C11.9689 14.9371 11.7893 14.8175 11.6696 14.6979C11.55 14.5783 11.4303 14.3989 11.3704 14.2195C11.3106 14.0401 11.2507 13.8607 11.2507 13.6215C11.2507 13.4421 11.3106 13.2627 11.3704 13.0833C11.4303 12.9039 11.55 12.7843 11.6696 12.6647C11.7893 12.5451 11.9689 12.4853 12.1484 12.4255C12.2681 12.3657 12.4476 12.3657 12.6272 12.4255Z" fill="white"/>
</svg>
